<svg width="32" height="26" viewBox="0 0 32 26" fill="none" xmlns="http://www.w3.org/2000/svg">
<path d="M31 9C30.4 9 30 9.4 30 10C30 15.8 26.4 20.8 21.4 22.9C24.2 20.5 26 17 26 13C26 5.8 20.2 0 13 0C5.8 0 0 5.8 0 13C0 20.2 5.8 26 13 26H16C24.8 26 32 18.8 32 10C32 9.4 31.6 9 31 9ZM5.9 5.9C7 4.7 9 4.7 10.1 5.9C10.7 6.4 11 7.2 11 8C11 8.8 10.7 9.6 10.1 10.1C9.6 10.7 8.8 11 8 11C7.2 11 6.4 10.7 5.9 10.1C5.3 9.6 5 8.8 5 8C5 7.2 5.3 6.4 5.9 5.9ZM10.1 20.1C9.6 20.7 8.8 21 8 21C7.2 21 6.4 20.7 5.9 20.1C5.3 19.6 5 18.8 5 18C5 17.2 5.3 16.4 5.9 15.9C7 14.8 9 14.8 10.1 15.9C10.7 16.5 11 17.2 11 18C11 18.8 10.7 19.6 10.1 20.1ZM10.9 15.1C10.3 14.6 10 13.8 10 13C10 12.2 10.3 11.4 10.9 10.9C12 9.8 14 9.8 15.1 10.9C15.7 11.5 16 12.2 16 13C16 13.8 15.7 14.6 15.1 15.1C14.6 15.7 13.8 16 13 16C12.2 16 11.4 15.7 10.9 15.1ZM20.1 20.1C19.6 20.7 18.8 21 18 21C17.2 21 16.4 20.7 15.9 20.1C15.3 19.6 15 18.8 15 18C15 17.2 15.3 16.4 15.9 15.9C17 14.8 19 14.8 20.1 15.9C20.7 16.5 21 17.2 21 18C21 18.8 20.7 19.6 20.1 20.1ZM20.1 10.1C19.6 10.7 18.8 11 18 11C17.2 11 16.4 10.7 15.9 10.1C15.3 9.6 15 8.8 15 8C15 7.2 15.3 6.4 15.9 5.9C17 4.8 19 4.8 20.1 5.9C20.7 6.4 21 7.2 21 8C21 8.8 20.7 9.6 20.1 10.1Z" fill="#14B8A6"/>
</svg>
