<svg viewBox="0 0 17 21" fill="none" xmlns="http://www.w3.org/2000/svg">
<path d="M16.3949 6.59998C16.3184 6.4287 16.1942 6.2817 16.0364 6.17566C15.8786 6.06961 15.6934 6.00876 15.5019 5.99998H10.8009L12.1045 1.25998C12.146 1.11165 12.1518 0.955998 12.1216 0.80511C12.0913 0.654223 12.0258 0.512165 11.93 0.389976C11.8344 0.268961 11.7116 0.170891 11.571 0.103287C11.4305 0.0356839 11.2759 0.000343209 11.1191 -2.38711e-05H3.93422C3.70249 -0.00775711 3.4749 0.0611759 3.28852 0.195548C3.10214 0.32992 2.96795 0.521814 2.9078 0.739976L0.157009 10.74C0.115493 10.8883 0.109638 11.044 0.139901 11.1948C0.170164 11.3457 0.235728 11.4878 0.331499 11.61C0.428173 11.7323 0.552616 11.8312 0.695077 11.8989C0.837539 11.9665 0.994148 12.0011 1.15263 12H5.12486L3.26705 18.74C3.20618 18.9573 3.22242 19.1883 3.31314 19.3955C3.40385 19.6028 3.56373 19.7741 3.76687 19.8817C3.97 19.9893 4.20449 20.027 4.43234 19.9886C4.66018 19.9501 4.86804 19.8379 5.02222 19.67L16.2101 7.66998C16.3434 7.52786 16.4316 7.35131 16.4644 7.16151C16.4972 6.97172 16.4731 6.77674 16.3949 6.59998V6.59998ZM6.34629 15.28L7.44456 11.28C7.48607 11.1317 7.49193 10.976 7.46166 10.8251C7.4314 10.6742 7.36584 10.5322 7.27006 10.41C7.17445 10.289 7.05165 10.1909 6.91109 10.1233C6.77053 10.0557 6.61595 10.0203 6.4592 10.02H2.51776L4.71429 1.99998H9.77452L8.47097 6.73998C8.42912 6.89103 8.42423 7.04955 8.45671 7.20278C8.48918 7.35601 8.55811 7.49968 8.65794 7.62223C8.75778 7.74479 8.88574 7.84281 9.03153 7.90842C9.17732 7.97402 9.33689 8.00538 9.49738 7.99998H13.1617L6.34629 15.28Z" />
</svg>
