<svg viewBox="0 0 21 20" fill="none" xmlns="http://www.w3.org/2000/svg">
<path d="M12.3697 6H13.3961C13.6684 6 13.9294 5.89464 14.1219 5.70711C14.3144 5.51957 14.4225 5.26522 14.4225 5C14.4225 4.73478 14.3144 4.48043 14.1219 4.29289C13.9294 4.10536 13.6684 4 13.3961 4H12.3697C12.0975 4 11.8364 4.10536 11.6439 4.29289C11.4514 4.48043 11.3433 4.73478 11.3433 5C11.3433 5.26522 11.4514 5.51957 11.6439 5.70711C11.8364 5.89464 12.0975 6 12.3697 6V6ZM12.3697 10H13.3961C13.6684 10 13.9294 9.89464 14.1219 9.70711C14.3144 9.51957 14.4225 9.26522 14.4225 9C14.4225 8.73478 14.3144 8.48043 14.1219 8.29289C13.9294 8.10536 13.6684 8 13.3961 8H12.3697C12.0975 8 11.8364 8.10536 11.6439 8.29289C11.4514 8.48043 11.3433 8.73478 11.3433 9C11.3433 9.26522 11.4514 9.51957 11.6439 9.70711C11.8364 9.89464 12.0975 10 12.3697 10V10ZM7.23764 6H8.26406C8.53628 6 8.79735 5.89464 8.98984 5.70711C9.18233 5.51957 9.29047 5.26522 9.29047 5C9.29047 4.73478 9.18233 4.48043 8.98984 4.29289C8.79735 4.10536 8.53628 4 8.26406 4H7.23764C6.96542 4 6.70435 4.10536 6.51186 4.29289C6.31937 4.48043 6.21123 4.73478 6.21123 5C6.21123 5.26522 6.31937 5.51957 6.51186 5.70711C6.70435 5.89464 6.96542 6 7.23764 6V6ZM7.23764 10H8.26406C8.53628 10 8.79735 9.89464 8.98984 9.70711C9.18233 9.51957 9.29047 9.26522 9.29047 9C9.29047 8.73478 9.18233 8.48043 8.98984 8.29289C8.79735 8.10536 8.53628 8 8.26406 8H7.23764C6.96542 8 6.70435 8.10536 6.51186 8.29289C6.31937 8.48043 6.21123 8.73478 6.21123 9C6.21123 9.26522 6.31937 9.51957 6.51186 9.70711C6.70435 9.89464 6.96542 10 7.23764 10V10ZM19.5546 18H18.5282V1C18.5282 0.734784 18.4201 0.48043 18.2276 0.292893C18.0351 0.105357 17.774 0 17.5018 0H3.13198C2.85976 0 2.59868 0.105357 2.40619 0.292893C2.2137 0.48043 2.10556 0.734784 2.10556 1V18H1.07915C0.806927 18 0.545855 18.1054 0.353364 18.2929C0.160874 18.4804 0.0527344 18.7348 0.0527344 19C0.0527344 19.2652 0.160874 19.5196 0.353364 19.7071C0.545855 19.8946 0.806927 20 1.07915 20H19.5546C19.8268 20 20.0879 19.8946 20.2804 19.7071C20.4729 19.5196 20.581 19.2652 20.581 19C20.581 18.7348 20.4729 18.4804 20.2804 18.2929C20.0879 18.1054 19.8268 18 19.5546 18ZM11.3433 18H9.29047V14H11.3433V18ZM16.4754 18H13.3961V13C13.3961 12.7348 13.288 12.4804 13.0955 12.2929C12.903 12.1054 12.6419 12 12.3697 12H8.26406C7.99183 12 7.73076 12.1054 7.53827 12.2929C7.34578 12.4804 7.23764 12.7348 7.23764 13V18H4.15839V2H16.4754V18Z" />
</svg>
