<svg viewBox="0 0 21 20" fill="none" xmlns="http://www.w3.org/2000/svg">
<path d="M10.3169 0C8.28683 0 6.30236 0.58649 4.61443 1.6853C2.9265 2.78412 1.61092 4.3459 0.834051 6.17317C0.0571817 8.00043 -0.146083 10.0111 0.249962 11.9509C0.646006 13.8907 1.62357 15.6725 3.05904 17.0711C4.49451 18.4696 6.3234 19.422 8.31445 19.8079C10.3055 20.1937 12.3693 19.9957 14.2448 19.2388C16.1203 18.4819 17.7234 17.2002 18.8512 15.5557C19.9791 13.9112 20.581 11.9778 20.581 10C20.581 8.68678 20.3156 7.38642 19.7997 6.17317C19.2839 4.95991 18.5279 3.85752 17.5747 2.92893C16.6216 2.00035 15.4901 1.26375 14.2448 0.761205C12.9995 0.258658 11.6648 0 10.3169 0V0ZM11.3433 17.93V17C11.3433 16.7348 11.2352 16.4804 11.0427 16.2929C10.8502 16.1054 10.5891 16 10.3169 16C10.0447 16 9.7836 16.1054 9.59111 16.2929C9.39862 16.4804 9.29048 16.7348 9.29048 17V17.93C7.48396 17.7068 5.80485 16.9049 4.51722 15.6504C3.22959 14.3959 2.40651 12.76 2.17742 11H3.13198C3.40421 11 3.66528 10.8946 3.85777 10.7071C4.05026 10.5196 4.1584 10.2652 4.1584 10C4.1584 9.73478 4.05026 9.48043 3.85777 9.29289C3.66528 9.10536 3.40421 9 3.13198 9H2.17742C2.40651 7.23998 3.22959 5.60408 4.51722 4.34959C5.80485 3.0951 7.48396 2.29319 9.29048 2.07V3C9.29048 3.26522 9.39862 3.51957 9.59111 3.70711C9.7836 3.89464 10.0447 4 10.3169 4C10.5891 4 10.8502 3.89464 11.0427 3.70711C11.2352 3.51957 11.3433 3.26522 11.3433 3V2.07C13.1498 2.29319 14.8289 3.0951 16.1166 4.34959C17.4042 5.60408 18.2273 7.23998 18.4564 9H17.5018C17.2296 9 16.9685 9.10536 16.776 9.29289C16.5835 9.48043 16.4754 9.73478 16.4754 10C16.4754 10.2652 16.5835 10.5196 16.776 10.7071C16.9685 10.8946 17.2296 11 17.5018 11H18.4564C18.2273 12.76 17.4042 14.3959 16.1166 15.6504C14.8289 16.9049 13.1498 17.7068 11.3433 17.93ZM13.5398 5.55L8.40776 7.67C8.16851 7.77099 7.97768 7.95691 7.87402 8.19L5.69802 13.19C5.61718 13.3734 5.59451 13.5761 5.63293 13.7722C5.67134 13.9682 5.76908 14.1485 5.91357 14.29C6.10308 14.4784 6.36132 14.5862 6.63206 14.59C6.77408 14.5901 6.91435 14.5594 7.04263 14.5L12.1747 12.38C12.4139 12.279 12.6048 12.0931 12.7084 11.86L14.8844 6.86C14.9638 6.67676 14.9852 6.47463 14.946 6.27946C14.9068 6.08429 14.8088 5.90493 14.6645 5.7643C14.5201 5.62368 14.336 5.52818 14.1357 5.49001C13.9354 5.45183 13.7279 5.47272 13.5398 5.55V5.55ZM10.9841 10.65L8.64383 11.65L9.67025 9.37L12.0105 8.37L10.9841 10.65Z" />
</svg>
