<svg viewBox="0 0 21 22" fill="none" xmlns="http://www.w3.org/2000/svg">
<path d="M14.1249 11.71C15.1312 10.9387 15.8657 9.88092 16.2262 8.68394C16.5867 7.48697 16.5554 6.21027 16.1365 5.03147C15.7175 3.85267 14.9319 2.83039 13.8889 2.10686C12.8459 1.38332 11.5973 0.994507 10.3169 0.994507C9.0365 0.994507 7.78793 1.38332 6.7449 2.10686C5.70188 2.83039 4.91626 3.85267 4.49735 5.03147C4.07843 6.21027 4.04706 7.48697 4.40758 8.68394C4.76811 9.88092 5.50261 10.9387 6.5089 11.71C4.7846 12.383 3.28009 13.4994 2.15576 14.9399C1.03144 16.3805 0.329434 18.0913 0.124599 19.89C0.109772 20.0213 0.12164 20.1542 0.159524 20.2811C0.197407 20.4079 0.260566 20.5263 0.345393 20.6293C0.516709 20.8375 0.765887 20.9708 1.03811 21C1.31033 21.0292 1.5833 20.9518 1.79696 20.7849C2.01063 20.618 2.14749 20.3752 2.17743 20.11C2.40281 18.1552 3.35954 16.3498 4.86481 15.0388C6.37008 13.7278 8.31837 13.003 10.3374 13.003C12.3565 13.003 14.3048 13.7278 15.81 15.0388C17.3153 16.3498 18.272 18.1552 18.4974 20.11C18.5253 20.3557 18.6457 20.5827 18.8352 20.747C19.0248 20.9114 19.2701 21.0015 19.5238 21H19.6368C19.9058 20.9698 20.1517 20.8373 20.3209 20.6313C20.4901 20.4252 20.5689 20.1624 20.54 19.9C20.3342 18.0962 19.6284 16.381 18.4983 14.9382C17.3682 13.4954 15.8564 12.3795 14.1249 11.71V11.71ZM10.3169 11C9.50488 11 8.71109 10.7654 8.03592 10.3259C7.36075 9.88636 6.83451 9.26164 6.52377 8.53074C6.21302 7.79983 6.13171 6.99557 6.29013 6.21964C6.44855 5.44372 6.83957 4.73099 7.41376 4.17158C7.98795 3.61217 8.71951 3.2312 9.51593 3.07686C10.3123 2.92252 11.1379 3.00173 11.8881 3.30448C12.6383 3.60724 13.2795 4.11993 13.7306 4.77772C14.1818 5.43552 14.4226 6.20888 14.4226 7C14.4226 8.06087 13.99 9.07828 13.22 9.82843C12.4501 10.5786 11.4058 11 10.3169 11Z" />
</svg>
