<svg viewBox="0 0 19 21" fill="none" xmlns="http://www.w3.org/2000/svg">
<path d="M17.5283 7.00001L11.3698 1.74001C10.8052 1.24805 10.0744 0.976074 9.31693 0.976074C8.55951 0.976074 7.82866 1.24805 7.2641 1.74001L1.10561 7.00001C0.779592 7.28408 0.519428 7.63256 0.342445 8.02225C0.165463 8.41194 0.075722 8.83389 0.0791989 9.26001V18C0.0791989 18.7957 0.403618 19.5587 0.981089 20.1213C1.55856 20.6839 2.34178 21 3.15844 21H15.4754C16.2921 21 17.0753 20.6839 17.6528 20.1213C18.2303 19.5587 18.5547 18.7957 18.5547 18V9.25001C18.5567 8.82557 18.4662 8.40555 18.2893 8.01769C18.1124 7.62983 17.853 7.28296 17.5283 7.00001V7.00001ZM11.3698 19H7.2641V14C7.2641 13.7348 7.37224 13.4804 7.56473 13.2929C7.75722 13.1054 8.0183 13 8.29052 13H10.3433C10.6156 13 10.8766 13.1054 11.0691 13.2929C11.2616 13.4804 11.3698 13.7348 11.3698 14V19ZM16.5018 18C16.5018 18.2652 16.3937 18.5196 16.2012 18.7071C16.0087 18.8946 15.7476 19 15.4754 19H13.4226V14C13.4226 13.2044 13.0982 12.4413 12.5207 11.8787C11.9432 11.3161 11.16 11 10.3433 11H8.29052C7.47385 11 6.69063 11.3161 6.11316 11.8787C5.53569 12.4413 5.21127 13.2044 5.21127 14V19H3.15844C2.88622 19 2.62515 18.8946 2.43266 18.7071C2.24017 18.5196 2.13203 18.2652 2.13203 18V9.25001C2.13221 9.10802 2.16343 8.9677 2.2236 8.83839C2.28378 8.70907 2.37152 8.59372 2.48101 8.50001L8.6395 3.25001C8.82681 3.08969 9.06761 3.00127 9.31693 3.00127C9.56626 3.00127 9.80706 3.08969 9.99437 3.25001L16.1529 8.50001C16.2623 8.59372 16.3501 8.70907 16.4103 8.83839C16.4704 8.9677 16.5017 9.10802 16.5018 9.25001V18Z" />
</svg>
