<svg viewBox="0 0 17 20" fill="none" xmlns="http://www.w3.org/2000/svg">
<path d="M0.105713 10C0.105713 10.2652 0.213853 10.5196 0.406343 10.7071C0.598833 10.8946 0.859906 11 1.13213 11H8.92262L6.56186 13.29C6.46566 13.383 6.3893 13.4936 6.33719 13.6154C6.28508 13.7373 6.25825 13.868 6.25825 14C6.25825 14.132 6.28508 14.2627 6.33719 14.3846C6.3893 14.5064 6.46566 14.617 6.56186 14.71C6.65728 14.8037 6.77081 14.8781 6.89588 14.9289C7.02096 14.9797 7.15512 15.0058 7.29062 15.0058C7.42612 15.0058 7.56028 14.9797 7.68535 14.9289C7.81043 14.8781 7.92395 14.8037 8.01937 14.71L12.125 10.71C12.2185 10.6149 12.2917 10.5028 12.3406 10.38C12.4432 10.1365 12.4432 9.86346 12.3406 9.62C12.2917 9.49725 12.2185 9.3851 12.125 9.29L8.01937 5.29C7.92367 5.19676 7.81006 5.1228 7.68502 5.07234C7.55998 5.02188 7.42596 4.99591 7.29062 4.99591C7.15528 4.99591 7.02126 5.02188 6.89622 5.07234C6.77118 5.1228 6.65757 5.19676 6.56186 5.29C6.46616 5.38324 6.39025 5.49393 6.33845 5.61575C6.28666 5.73757 6.26 5.86814 6.26 6C6.26 6.13186 6.28666 6.26243 6.33845 6.38425C6.39025 6.50607 6.46616 6.61676 6.56186 6.71L8.92262 9H1.13213C0.859906 9 0.598833 9.10536 0.406343 9.29289C0.213853 9.48043 0.105713 9.73478 0.105713 10V10ZM13.4491 0H3.18496C2.36829 0 1.58507 0.316071 1.0076 0.87868C0.430133 1.44129 0.105713 2.20435 0.105713 3V6C0.105713 6.26522 0.213853 6.51957 0.406343 6.70711C0.598833 6.89464 0.859906 7 1.13213 7C1.40435 7 1.66542 6.89464 1.85791 6.70711C2.0504 6.51957 2.15854 6.26522 2.15854 6V3C2.15854 2.73478 2.26668 2.48043 2.45917 2.29289C2.65166 2.10536 2.91274 2 3.18496 2H13.4491C13.7213 2 13.9824 2.10536 14.1749 2.29289C14.3674 2.48043 14.4755 2.73478 14.4755 3V17C14.4755 17.2652 14.3674 17.5196 14.1749 17.7071C13.9824 17.8946 13.7213 18 13.4491 18H3.18496C2.91274 18 2.65166 17.8946 2.45917 17.7071C2.26668 17.5196 2.15854 17.2652 2.15854 17V14C2.15854 13.7348 2.0504 13.4804 1.85791 13.2929C1.66542 13.1054 1.40435 13 1.13213 13C0.859906 13 0.598833 13.1054 0.406343 13.2929C0.213853 13.4804 0.105713 13.7348 0.105713 14V17C0.105713 17.7956 0.430133 18.5587 1.0076 19.1213C1.58507 19.6839 2.36829 20 3.18496 20H13.4491C14.2658 20 15.049 19.6839 15.6265 19.1213C16.2039 18.5587 16.5284 17.7956 16.5284 17V3C16.5284 2.20435 16.2039 1.44129 15.6265 0.87868C15.049 0.316071 14.2658 0 13.4491 0Z" />
</svg>
