<svg viewBox="0 0 21 20" fill="none" xmlns="http://www.w3.org/2000/svg">
<path d="M10.3169 0C8.28683 0 6.30236 0.58649 4.61443 1.6853C2.9265 2.78412 1.61092 4.3459 0.834051 6.17317C0.0571817 8.00043 -0.146083 10.0111 0.249962 11.9509C0.646006 13.8907 1.62357 15.6725 3.05904 17.0711C4.49451 18.4696 6.3234 19.422 8.31445 19.8079C10.3055 20.1937 12.3693 19.9957 14.2448 19.2388C16.1203 18.4819 17.7234 17.2002 18.8512 15.5557C19.9791 13.9112 20.581 11.9778 20.581 10C20.581 8.68678 20.3156 7.38642 19.7997 6.17317C19.2839 4.95991 18.5279 3.85752 17.5747 2.92893C16.6216 2.00035 15.4901 1.26375 14.2448 0.761205C12.9995 0.258658 11.6648 0 10.3169 0V0ZM10.3169 18C8.69284 18 7.10527 17.5308 5.75492 16.6518C4.40458 15.7727 3.35211 14.5233 2.73062 13.0615C2.10912 11.5997 1.94651 9.99113 2.26335 8.43928C2.58018 6.88743 3.36224 5.46197 4.51061 4.34315C5.65898 3.22433 7.1221 2.4624 8.71494 2.15372C10.3078 1.84504 11.9588 2.00346 13.4592 2.60896C14.9596 3.21447 16.2421 4.23984 17.1444 5.55544C18.0466 6.87103 18.5282 8.41775 18.5282 10C18.5282 12.1217 17.6631 14.1566 16.1232 15.6569C14.5833 17.1571 12.4947 18 10.3169 18V18ZM10.3169 7C9.70787 7 9.11253 7.17595 8.60615 7.50559C8.09977 7.83524 7.7051 8.30377 7.47204 8.85195C7.23898 9.40013 7.178 10.0033 7.29681 10.5853C7.41562 11.1672 7.70889 11.7018 8.13953 12.1213C8.57017 12.5409 9.11884 12.8266 9.71616 12.9424C10.3135 13.0581 10.9326 12.9987 11.4953 12.7716C12.0579 12.5446 12.5388 12.1601 12.8772 11.6667C13.2155 11.1734 13.3961 10.5933 13.3961 10C13.3961 9.20435 13.0717 8.44129 12.4942 7.87868C11.9168 7.31607 11.1336 7 10.3169 7ZM10.3169 11C10.1139 11 9.91544 10.9414 9.74664 10.8315C9.57785 10.7216 9.44629 10.5654 9.36861 10.3827C9.29092 10.2 9.27059 9.99889 9.3102 9.80491C9.3498 9.61093 9.44756 9.43275 9.59111 9.29289C9.73465 9.15304 9.91754 9.0578 10.1166 9.01921C10.3158 8.98063 10.5221 9.00043 10.7097 9.07612C10.8972 9.15181 11.0575 9.27998 11.1703 9.44443C11.2831 9.60888 11.3433 9.80222 11.3433 10C11.3433 10.2652 11.2352 10.5196 11.0427 10.7071C10.8502 10.8946 10.5891 11 10.3169 11Z" />
</svg>
