<svg viewBox="0 0 23 18" fill="none" xmlns="http://www.w3.org/2000/svg">
<path d="M11.6249 9.22C12.1725 8.75813 12.6118 8.18688 12.9129 7.54502C13.214 6.90316 13.3698 6.20571 13.3698 5.5C13.3698 4.17392 12.8291 2.90215 11.8666 1.96447C10.9042 1.02678 9.5988 0.5 8.23769 0.5C6.87658 0.5 5.57121 1.02678 4.60876 1.96447C3.64631 2.90215 3.10561 4.17392 3.10561 5.5C3.1056 6.20571 3.26142 6.90316 3.5625 7.54502C3.86357 8.18688 4.30285 8.75813 4.85052 9.22C3.41368 9.85388 2.19463 10.8775 1.33913 12.1685C0.48363 13.4596 0.0278779 14.9633 0.0263672 16.5C0.0263672 16.7652 0.134507 17.0196 0.326997 17.2071C0.519487 17.3946 0.78056 17.5 1.05278 17.5C1.325 17.5 1.58608 17.3946 1.77857 17.2071C1.97106 17.0196 2.0792 16.7652 2.0792 16.5C2.0792 14.9087 2.72804 13.3826 3.88298 12.2574C5.03792 11.1321 6.60435 10.5 8.23769 10.5C9.87102 10.5 11.4375 11.1321 12.5924 12.2574C13.7473 13.3826 14.3962 14.9087 14.3962 16.5C14.3962 16.7652 14.5043 17.0196 14.6968 17.2071C14.8893 17.3946 15.1504 17.5 15.4226 17.5C15.6948 17.5 15.9559 17.3946 16.1484 17.2071C16.3409 17.0196 16.449 16.7652 16.449 16.5C16.4475 14.9633 15.9917 13.4596 15.1362 12.1685C14.2807 10.8775 13.0617 9.85388 11.6249 9.22V9.22ZM8.23769 8.5C7.62867 8.5 7.03333 8.32405 6.52695 7.99441C6.02057 7.66476 5.6259 7.19623 5.39284 6.64805C5.15978 6.09987 5.0988 5.49667 5.21761 4.91473C5.33642 4.33279 5.62969 3.79824 6.06033 3.37868C6.49097 2.95912 7.03964 2.6734 7.63696 2.55764C8.23427 2.44189 8.8534 2.5013 9.41606 2.72836C9.97872 2.95542 10.4596 3.33994 10.798 3.83329C11.1363 4.32664 11.3169 4.90666 11.3169 5.5C11.3169 6.29565 10.9925 7.05871 10.415 7.62132C9.83757 8.18393 9.05435 8.5 8.23769 8.5ZM18.235 8.82C18.8918 8.09933 19.3209 7.20905 19.4706 6.25634C19.6202 5.30362 19.484 4.32907 19.0784 3.45C18.6728 2.57093 18.0151 1.8248 17.1844 1.30142C16.3537 0.77805 15.3854 0.499742 14.3962 0.5C14.124 0.5 13.8629 0.605357 13.6704 0.792893C13.4779 0.98043 13.3698 1.23478 13.3698 1.5C13.3698 1.76522 13.4779 2.01957 13.6704 2.20711C13.8629 2.39464 14.124 2.5 14.3962 2.5C15.2128 2.5 15.9961 2.81607 16.5735 3.37868C17.151 3.94129 17.4754 4.70435 17.4754 5.5C17.474 6.02524 17.331 6.5409 17.0608 6.99542C16.7906 7.44994 16.4027 7.82738 15.9358 8.09C15.7836 8.17552 15.6565 8.29766 15.5667 8.44474C15.4768 8.59182 15.4272 8.7589 15.4226 8.93C15.4183 9.09976 15.4584 9.2678 15.5393 9.41826C15.6201 9.56872 15.7389 9.69665 15.8845 9.79L16.2848 10.05L16.4182 10.12C17.6554 10.6917 18.6992 11.596 19.4266 12.7263C20.154 13.8566 20.5347 15.1659 20.5239 16.5C20.5239 16.7652 20.632 17.0196 20.8245 17.2071C21.017 17.3946 21.2781 17.5 21.5503 17.5C21.8225 17.5 22.0836 17.3946 22.2761 17.2071C22.4686 17.0196 22.5767 16.7652 22.5767 16.5C22.5851 14.9654 22.1906 13.4543 21.4307 12.1101C20.6708 10.7659 19.5707 9.63331 18.235 8.82V8.82Z" />
</svg>
