<svg viewBox="0 0 21 20" fill="none" xmlns="http://www.w3.org/2000/svg">
<path d="M19.8831 7.55L17.9432 6.92L18.8567 5.14C18.9493 4.95369 18.9802 4.74397 18.9453 4.53978C18.9104 4.33558 18.8113 4.14699 18.6616 4L16.4754 1.87C16.3237 1.72209 16.1283 1.62421 15.9165 1.59013C15.7048 1.55605 15.4874 1.58748 15.295 1.68L13.468 2.57L12.8213 0.680003C12.753 0.482996 12.6234 0.311629 12.4505 0.189751C12.2776 0.0678737 12.0699 0.00154767 11.8565 3.33354e-06H8.77727C8.56208 -0.000537828 8.35217 0.0648223 8.17719 0.186845C8.00222 0.308868 7.87103 0.481382 7.80217 0.680003L7.15553 2.57L5.32851 1.68C5.13728 1.58978 4.92201 1.55961 4.71243 1.59364C4.50284 1.62767 4.30926 1.72423 4.1584 1.87L1.97213 4C1.82031 4.14777 1.71985 4.33818 1.68487 4.54446C1.64989 4.75074 1.68215 4.96251 1.77712 5.15L2.69062 6.93L0.7507 7.56C0.548488 7.62654 0.372595 7.75283 0.247498 7.92131C0.122401 8.08979 0.0543229 8.29207 0.0527378 8.5V11.5C0.0521823 11.7096 0.119269 11.9142 0.244515 12.0846C0.369761 12.2551 0.546833 12.3829 0.7507 12.45L2.69062 13.08L1.77712 14.86C1.68451 15.0463 1.65354 15.256 1.68847 15.4602C1.7234 15.6644 1.82251 15.853 1.97213 16L4.1584 18.13C4.31007 18.2779 4.50551 18.3758 4.71724 18.4099C4.92896 18.444 5.14633 18.4125 5.33878 18.32L7.16579 17.43L7.81244 19.32C7.88129 19.5186 8.01248 19.6911 8.18746 19.8132C8.36243 19.9352 8.57235 20.0005 8.78753 20H11.8668C12.082 20.0005 12.2919 19.9352 12.4668 19.8132C12.6418 19.6911 12.773 19.5186 12.8419 19.32L13.4885 17.43L15.3155 18.32C15.5055 18.4079 15.7187 18.4369 15.9262 18.4029C16.1336 18.3689 16.3253 18.2737 16.4754 18.13L18.6616 16C18.8135 15.8522 18.9139 15.6618 18.9489 15.4555C18.9839 15.2493 18.9516 15.0375 18.8567 14.85L17.9432 13.07L19.8831 12.44C20.0853 12.3735 20.2612 12.2472 20.3863 12.0787C20.5114 11.9102 20.5795 11.7079 20.581 11.5V8.5C20.5816 8.29036 20.5145 8.08585 20.3893 7.91537C20.264 7.7449 20.0869 7.61709 19.8831 7.55ZM18.5282 10.78L17.2965 11.18C17.0133 11.2695 16.7534 11.418 16.535 11.6151C16.3165 11.8122 16.1447 12.0533 16.0314 12.3216C15.9181 12.5899 15.8661 12.879 15.879 13.1688C15.8918 13.4586 15.9693 13.7422 16.1059 14L16.6909 15.14L15.5619 16.24L14.4225 15.64C14.1593 15.5122 13.871 15.4411 13.5771 15.4313C13.2832 15.4215 12.9906 15.4734 12.719 15.5834C12.4475 15.6934 12.2034 15.8589 12.0032 16.0688C11.803 16.2787 11.6515 16.5281 11.5589 16.8L11.1483 18H9.51628L9.10572 16.8C9.01385 16.5241 8.86146 16.2709 8.65912 16.0581C8.45679 15.8452 8.20936 15.6778 7.93398 15.5675C7.65861 15.4571 7.36189 15.4064 7.06441 15.419C6.76693 15.4315 6.4758 15.5069 6.21123 15.64L5.04112 16.21L3.91206 15.11L4.52791 14C4.66452 13.7422 4.74194 13.4586 4.75479 13.1688C4.76765 12.879 4.71564 12.5899 4.60236 12.3216C4.48909 12.0533 4.31726 11.8122 4.09881 11.6151C3.88036 11.418 3.6205 11.2695 3.33727 11.18L2.10557 10.78V9.22L3.33727 8.82C3.6205 8.73049 3.88036 8.58203 4.09881 8.3849C4.31726 8.18778 4.48909 7.94671 4.60236 7.67842C4.71564 7.41014 4.76765 7.12105 4.75479 6.83123C4.74194 6.5414 4.66452 6.25777 4.52791 6L3.94285 4.89L5.07191 3.79L6.21123 4.36C6.4758 4.4931 6.76693 4.56852 7.06441 4.58105C7.36189 4.59357 7.65861 4.5429 7.93398 4.43254C8.20936 4.32218 8.45679 4.15478 8.65912 3.94195C8.86146 3.72912 9.01385 3.47595 9.10572 3.2L9.51628 2H11.1175L11.5281 3.2C11.6199 3.47595 11.7723 3.72912 11.9747 3.94195C12.177 4.15478 12.4244 4.32218 12.6998 4.43254C12.9752 4.5429 13.2719 4.59357 13.5694 4.58105C13.8669 4.56852 14.158 4.4931 14.4225 4.36L15.5927 3.79L16.7217 4.89L16.1059 6C15.9747 6.25645 15.9017 6.53735 15.8917 6.82369C15.8816 7.11003 15.9349 7.39513 16.0478 7.65969C16.1607 7.92424 16.3306 8.16207 16.546 8.35708C16.7615 8.5521 17.0174 8.69973 17.2965 8.79L18.5282 9.19V10.78ZM10.3169 6C9.50487 6 8.71108 6.2346 8.03591 6.67413C7.36073 7.11365 6.8345 7.73836 6.52375 8.46927C6.21301 9.20017 6.1317 10.0044 6.29012 10.7804C6.44854 11.5563 6.83956 12.269 7.41375 12.8284C7.98794 13.3878 8.71949 13.7688 9.51591 13.9231C10.3123 14.0775 11.1378 13.9983 11.8881 13.6955C12.6383 13.3928 13.2795 12.8801 13.7306 12.2223C14.1818 11.5645 14.4225 10.7911 14.4225 10C14.4225 8.93914 13.99 7.92172 13.22 7.17158C12.4501 6.42143 11.4058 6 10.3169 6V6ZM10.3169 12C9.91088 12 9.51398 11.8827 9.1764 11.6629C8.83881 11.4432 8.57569 11.1308 8.42032 10.7654C8.26495 10.3999 8.22429 9.99778 8.3035 9.60982C8.38271 9.22186 8.57823 8.86549 8.86532 8.58579C9.15241 8.30608 9.51819 8.1156 9.9164 8.03843C10.3146 7.96126 10.7274 8.00087 11.1025 8.15224C11.4776 8.30362 11.7982 8.55996 12.0238 8.88886C12.2493 9.21776 12.3697 9.60444 12.3697 10C12.3697 10.5304 12.1534 11.0391 11.7685 11.4142C11.3835 11.7893 10.8613 12 10.3169 12Z" />
</svg>